<svg width="32" height="31" viewBox="0 0 32 31" fill="none" xmlns="http://www.w3.org/2000/svg">
<rect width="32" height="31" rx="15.5" fill="white"/>
<mask id="mask0_1028_6295" style="mask-type:alpha" maskUnits="userSpaceOnUse" x="9" y="9" width="14" height="13">
<path fill-rule="evenodd" clip-rule="evenodd" d="M9.33325 9.16675H22.9816V21.5174H9.33325V9.16675Z" fill="white"/>
</mask>
<g mask="url(#mask0_1028_6295)">
<path fill-rule="evenodd" clip-rule="evenodd" d="M10.549 14.9447C11.4836 17.7073 15.1763 19.9411 16.1576 20.494C17.1423 19.9354 20.8616 17.6769 21.7663 14.9473C22.3603 13.1828 21.809 10.9478 19.6183 10.2771C18.557 9.95342 17.319 10.1504 16.4643 10.7787C16.2856 10.9091 16.0376 10.9117 15.8576 10.7825C14.9523 10.1358 13.7696 9.94646 12.6916 10.2771C10.5043 10.9471 9.95498 13.1822 10.549 14.9447ZM16.1583 21.5175C16.0756 21.5175 15.9936 21.4985 15.919 21.4598C15.7103 21.3515 10.795 18.7777 9.59698 15.2348C9.59631 15.2348 9.59631 15.2342 9.59631 15.2342C8.84431 13.0036 9.68165 10.2004 12.385 9.37266C13.6543 8.98252 15.0376 9.15416 16.1563 9.82486C17.2403 9.17379 18.6803 8.99392 19.9243 9.37266C22.6303 10.2017 23.4703 13.0042 22.719 15.2342C21.5596 18.7365 16.6083 21.349 16.3983 21.4586C16.3236 21.4978 16.241 21.5175 16.1583 21.5175Z" fill="#B0BCE3"/>
</g>
<path fill-rule="evenodd" clip-rule="evenodd" d="M20.1023 13.9959C19.8443 13.9959 19.6256 13.8078 19.6043 13.5595C19.5603 13.0389 19.1936 12.5994 18.6716 12.4391C18.4083 12.3581 18.2643 12.0902 18.349 11.8413C18.435 11.5917 18.7143 11.4562 18.9783 11.5347C19.887 11.814 20.5236 12.5785 20.6016 13.4822C20.6236 13.7438 20.419 13.9731 20.1436 13.994C20.1296 13.9952 20.1163 13.9959 20.1023 13.9959Z" fill="#B0BCE3"/>
</svg>
