<svg width="32" height="32" viewBox="0 0 32 32" fill="none" xmlns="http://www.w3.org/2000/svg">
<rect width="32" height="32" rx="16" fill="white"/>
<path d="M13.7083 13.5219C13.7083 12.6443 12.5678 12.4117 12.2652 13.2328C11.5333 15.2191 11 16.9959 11 17.9566C11 21.0181 13.4251 23.5 16.4167 23.5C19.4082 23.5 21.8333 21.0181 21.8333 17.9566C21.8333 16.9245 21.2178 14.9503 20.4016 12.7865C19.3445 9.98352 18.8159 8.58203 18.1634 8.50654C17.9546 8.48239 17.7268 8.52582 17.5405 8.62529C16.9583 8.93618 16.9583 10.4648 16.9583 13.5219C16.9583 14.4404 16.2308 15.1849 15.3333 15.1849C14.4359 15.1849 13.7083 14.4404 13.7083 13.5219Z" fill="#FF7A00"/>
</svg>
